<svg width="156" height="176" viewBox="0 0 156 176" fill="none" xmlns="http://www.w3.org/2000/svg">
<path d="M14.8875 158.006L0.850006 0.5H155.15L141.094 157.981L77.9062 175.5L14.8875 158.006Z" fill="#1572B6"/>
<path d="M78 162.113L129.063 147.956L141.075 13.3813H78V162.113Z" fill="#33A9DC"/>
<path d="M78 70.4437H103.563L105.325 50.6625H78V31.3438H126.438L125.975 36.525L121.231 89.7625H78V70.4437V70.4437Z" fill="white"/>
<path d="M78.1187 120.613L78.0312 120.638L56.5187 114.825L55.1438 99.4188H35.75L38.4563 129.75L78.025 140.738L78.1187 140.713V120.613V120.613Z" fill="#EBEBEB"/>
<path d="M101.919 88.9437L99.5937 114.812L78.05 120.625V140.725L117.65 129.75L117.944 126.487L121.3 88.9437H101.919V88.9437Z" fill="white"/>
<path d="M78.0688 31.3438V50.6625H31.4063L31.0188 46.3188L30.1375 36.525L29.675 31.3438H78.0688V31.3438ZM78 70.4437V89.7625H56.7563L56.3688 85.4187L55.4938 75.625L55.0313 70.4437H78V70.4437Z" fill="#EBEBEB"/>
</svg>
