<svg width="176" height="164" viewBox="0 0 176 164" fill="none" xmlns="http://www.w3.org/2000/svg">
<path d="M110.381 77.9375L41.2 65.75V155.806C41.2008 156.785 41.3943 157.753 41.7695 158.657C42.1447 159.56 42.6941 160.381 43.3865 161.072C44.0789 161.764 44.9006 162.312 45.8048 162.685C46.709 163.059 47.6779 163.251 48.6563 163.25H168.031C169.011 163.252 169.981 163.062 170.887 162.689C171.792 162.316 172.615 161.768 173.309 161.077C174.003 160.385 174.553 159.564 174.929 158.66C175.305 157.755 175.499 156.786 175.5 155.806V122.625L110.381 77.9375Z" fill="#185C37"/>
<path d="M110.381 0.750003H48.6563C47.6779 0.749182 46.709 0.941068 45.8048 1.31471C44.9006 1.68835 44.0789 2.23642 43.3865 2.92764C42.6941 3.61885 42.1447 4.43967 41.7695 5.34324C41.3943 6.2468 41.2008 7.21541 41.2 8.19375V41.375L110.381 82L147.013 94.1875L175.5 82V41.375L110.381 0.750003Z" fill="#21A366"/>
<path d="M41.2 41.375H110.381V82H41.2V41.375Z" fill="#107C41"/>
<path opacity="0.1" d="M90.7125 33.25H41.2V134.812H90.7125C92.6854 134.803 94.575 134.016 95.9718 132.623C97.3687 131.229 98.1602 129.342 98.175 127.369V40.6937C98.1602 38.7209 97.3687 36.8333 95.9718 35.4399C94.575 34.0466 92.6854 33.2598 90.7125 33.25V33.25Z" fill="black"/>
<path opacity="0.2" d="M86.6438 37.3125H41.2V138.875H86.6438C88.6167 138.865 90.5063 138.078 91.9031 136.685C93.2999 135.292 94.0915 133.404 94.1063 131.431V44.7562C94.0915 42.7834 93.2999 40.8958 91.9031 39.5024C90.5063 38.1091 88.6167 37.3223 86.6438 37.3125V37.3125Z" fill="black"/>
<path opacity="0.2" d="M86.6438 37.3125H41.2V130.75H86.6438C88.6167 130.74 90.5063 129.953 91.9031 128.56C93.2999 127.167 94.0915 125.279 94.1063 123.306V44.7563C94.0915 42.7834 93.2999 40.8958 91.9031 39.5024C90.5063 38.1091 88.6167 37.3223 86.6438 37.3125V37.3125Z" fill="black"/>
<path opacity="0.2" d="M82.575 37.3125H41.2V130.75H82.575C84.5479 130.74 86.4375 129.953 87.8343 128.56C89.2312 127.167 90.0227 125.279 90.0375 123.306V44.7563C90.0227 42.7834 89.2312 40.8958 87.8343 39.5024C86.4375 38.1091 84.5479 37.3223 82.575 37.3125V37.3125Z" fill="black"/>
<path d="M7.9625 37.3125H82.575C84.5514 37.3109 86.4477 38.094 87.847 39.4898C89.2463 40.8856 90.0342 42.7798 90.0375 44.7563V119.244C90.0342 121.22 89.2463 123.114 87.847 124.51C86.4477 125.906 84.5514 126.689 82.575 126.688H7.9625C6.98363 126.689 6.01403 126.498 5.10911 126.125C4.2042 125.751 3.38172 125.203 2.68868 124.512C1.99564 123.821 1.44563 123 1.07009 122.096C0.694539 121.192 0.50082 120.223 0.5 119.244V44.7563C0.50082 43.7774 0.694539 42.8083 1.07009 41.9043C1.44563 41.0003 1.99564 40.1792 2.68868 39.4879C3.38172 38.7966 4.2042 38.2487 5.10911 37.8754C6.01403 37.5021 6.98363 37.3109 7.9625 37.3125V37.3125Z" fill="url(#paint0_linear_5_59)"/>
<path d="M23.625 106.206L39.3188 81.9313L24.9437 57.7938H36.4875L44.3312 73.25C45.0562 74.7125 45.5813 75.8 45.8188 76.525H45.925C46.4375 75.35 46.9812 74.2188 47.55 73.1125L55.9375 57.8188H66.5625L51.8188 81.8188L66.9375 106.225H55.6312L46.5688 89.2813C46.148 88.5528 45.7904 87.7896 45.5 87H45.35C45.0857 87.7693 44.7334 88.5054 44.3 89.1938L34.9687 106.206H23.625Z" fill="white"/>
<path d="M110.381 82H175.5V122.625H110.381V82Z" fill="#107C41"/>
<defs>
<linearGradient id="paint0_linear_5_59" x1="16.0875" y1="31.4625" x2="74.45" y2="132.538" gradientUnits="userSpaceOnUse">
<stop stop-color="#18884F"/>
<stop offset="0.5" stop-color="#117E43"/>
<stop offset="1" stop-color="#0B6631"/>
</linearGradient>
</defs>
</svg>
