<svg width="176" height="176" viewBox="0 0 176 176" fill="none" xmlns="http://www.w3.org/2000/svg">
<path d="M172.2 80.2062L95.7937 3.79999C94.7486 2.75119 93.5067 1.91903 92.1392 1.35122C90.7717 0.783405 89.3057 0.491119 87.825 0.491119C86.3443 0.491119 84.8782 0.783405 83.5108 1.35122C82.1433 1.91903 80.9014 2.75119 79.8562 3.79999L63.9875 19.6687L84.1125 39.7937C86.4857 38.9861 89.038 38.8614 91.4786 39.4337C93.9192 40.0061 96.15 41.2525 97.9167 43.0309C99.6834 44.8094 100.915 47.0483 101.471 49.4927C102.027 51.937 101.886 54.4885 101.062 56.8562L120.437 76.2312C123.334 75.2363 126.483 75.2638 129.361 76.3092C132.24 77.3546 134.673 79.3547 136.255 81.9763C137.838 84.5978 138.475 87.6826 138.059 90.7164C137.643 93.7503 136.2 96.5502 133.971 98.6494C131.742 100.749 128.86 102.021 125.807 102.253C122.753 102.486 119.713 101.665 117.191 99.9282C114.669 98.191 112.819 95.6421 111.948 92.7063C111.077 89.7704 111.239 86.6248 112.406 83.7937L94.3125 65.7V113.306C97.0534 114.664 99.2463 116.92 100.526 119.699C101.805 122.477 102.095 125.61 101.345 128.576C100.595 131.541 98.8524 134.16 96.4063 135.997C93.9602 137.834 90.9587 138.777 87.9017 138.669C84.8448 138.562 81.9169 137.41 79.6057 135.407C77.2946 133.403 75.7398 130.668 75.2003 127.657C74.6608 124.646 75.1691 121.541 76.6406 118.859C78.1121 116.178 80.458 114.081 83.2875 112.919V64.875C81.6506 64.2034 80.1627 63.2145 78.9096 61.9654C77.6565 60.7163 76.6629 59.2316 75.9861 57.5968C75.3093 55.962 74.9627 54.2095 74.9661 52.4401C74.9696 50.6708 75.3231 48.9196 76.0062 47.2875L56.1937 27.4625L3.79999 79.875C2.75025 80.9203 1.91729 82.1626 1.34892 83.5306C0.780556 84.8986 0.487976 86.3655 0.487976 87.8469C0.487976 89.3283 0.780556 90.7951 1.34892 92.1631C1.91729 93.5311 2.75025 94.7735 3.79999 95.8187L80.2062 172.2C81.2514 173.249 82.4933 174.081 83.8608 174.649C85.2282 175.217 86.6943 175.509 88.175 175.509C89.6557 175.509 91.1217 175.217 92.4892 174.649C93.8567 174.081 95.0986 173.249 96.1437 172.2L172.2 96.125C173.25 95.0797 174.083 93.8374 174.651 92.4694C175.219 91.1013 175.512 89.6345 175.512 88.1531C175.512 86.6717 175.219 85.2049 174.651 83.8369C174.083 82.4688 173.25 81.2265 172.2 80.1812" fill="#DD4C35"/>
<path d="M63.9875 19.6688L84.1125 39.7938C86.4857 38.9861 89.038 38.8614 91.4786 39.4337C93.9192 40.0061 96.15 41.2525 97.9167 43.0309C99.6834 44.8094 100.915 47.0484 101.471 49.4927C102.027 51.9371 101.886 54.4885 101.063 56.8563L120.438 76.2313C123.334 75.2363 126.483 75.2639 129.361 76.3092C132.24 77.3546 134.673 79.3547 136.255 81.9763C137.838 84.5979 138.475 87.6826 138.059 90.7165C137.643 93.7504 136.201 96.5502 133.971 98.6495C131.742 100.749 128.86 102.021 125.807 102.253C122.753 102.486 119.713 101.665 117.191 99.9283C114.669 98.191 112.819 95.6422 111.948 92.7063C111.077 89.7704 111.239 86.6249 112.406 83.7938L94.3125 65.7V113.306C97.0534 114.664 99.2463 116.92 100.526 119.699C101.806 122.477 102.095 125.61 101.345 128.576C100.595 131.541 98.8524 134.16 96.4063 135.997C93.9603 137.834 90.9587 138.777 87.9017 138.669C84.8448 138.562 81.9169 137.41 79.6058 135.407C77.2946 133.403 75.7398 130.668 75.2003 127.657C74.6608 124.646 75.1691 121.541 76.6406 118.859C78.1122 116.178 80.458 114.081 83.2875 112.919V64.875C81.6506 64.2034 80.1627 63.2146 78.9096 61.9654C77.6565 60.7163 76.6629 59.2316 75.9861 57.5968C75.3093 55.962 74.9627 54.2095 74.9661 52.4402C74.9696 50.6708 75.3231 48.9196 76.0063 47.2875L56.1938 27.4625" fill="white"/>
</svg>
