<svg width="156" height="176" viewBox="0 0 156 176" fill="none" xmlns="http://www.w3.org/2000/svg">
<path d="M14.8875 158.006L0.84375 0.5H155.156L141.094 157.981L77.9063 175.5L14.8875 158.006Z" fill="#E44F26"/>
<path d="M78 162.112L129.063 147.956L141.075 13.3812H78V162.112Z" fill="#F1662A"/>
<path d="M78 71.7937H52.4375L50.675 52.0125H78V32.6937H29.5625L30.025 37.8812L34.7688 91.1125H78V71.7937V71.7937ZM78 121.962L77.9125 121.987L56.4 116.181L55.025 100.775H35.6312L38.3375 131.1L77.9125 142.087L78 142.062V121.962Z" fill="#EBEBEB"/>
<path d="M77.9312 71.7937V91.1125H101.719L99.4812 116.169L77.9312 121.981V142.081L117.537 131.1L117.825 127.837L122.362 76.9812L122.837 71.7937H77.9312V71.7937ZM77.9312 32.6937V52.0125H124.594L124.981 47.675L125.862 37.8812L126.325 32.6937H77.9312V32.6937Z" fill="white"/>
</svg>
