<svg width="176" height="176" viewBox="0 0 176 176" fill="none" xmlns="http://www.w3.org/2000/svg">
<path d="M0.5 0.5H175.5V175.5H0.5V0.5Z" fill="#F5DE19"/>
<path d="M118.056 137.219C119.547 140.247 121.864 142.793 124.739 144.562C127.614 146.332 130.931 147.253 134.306 147.219C141.119 147.219 145.475 143.812 145.475 139.094C145.475 133.469 141 131.456 133.5 128.175L129.388 126.413C117.513 121.356 109.638 115.025 109.638 101.638C109.638 89.3063 119.013 79.9125 133.719 79.9125C138.479 79.5687 143.236 80.6342 147.395 82.976C151.554 85.3179 154.932 88.8324 157.106 93.0813L144.25 101.3C143.413 99.1933 141.955 97.3908 140.069 96.1317C138.184 94.8727 135.961 94.2164 133.694 94.25C132.705 94.151 131.706 94.2591 130.761 94.5674C129.816 94.8757 128.946 95.3775 128.206 96.0407C127.465 96.704 126.871 97.5142 126.461 98.4197C126.052 99.3252 125.835 100.306 125.825 101.3C125.825 106.231 128.881 108.231 135.938 111.3L140.05 113.063C154.025 119.056 161.925 125.163 161.925 138.894C161.925 153.7 150.294 161.812 134.675 161.812C128.589 162.2 122.522 160.819 117.204 157.834C111.886 154.85 107.546 150.39 104.706 144.994L118.056 137.219ZM59.9625 138.644C62.5438 143.225 64.8938 147.1 70.5438 147.1C75.9438 147.1 79.3563 144.987 79.3563 136.769V80.85H95.8V136.987C95.8 154.012 85.8 161.763 71.2438 161.763C66.0985 162.044 60.9885 160.761 56.5855 158.084C52.1826 155.407 48.6929 151.46 46.575 146.763L59.9625 138.644Z" fill="black"/>
</svg>
