<svg width="176" height="176" viewBox="0 0 176 176" fill="none" xmlns="http://www.w3.org/2000/svg">
<path d="M174.713 75.275C172.311 59.0882 165.437 43.8937 154.865 31.4035C144.293 18.9132 130.443 9.62358 114.875 4.58123C108.946 2.69858 102.842 1.42123 96.6563 0.768728C95.0125 0.599978 83.7063 0.412478 82.2813 0.549978C81.9063 0.549978 80.7063 0.699978 79.6313 0.787478C67.1691 1.99371 55.1096 5.85397 44.2634 12.1087C33.4173 18.3635 24.0359 26.8678 16.75 37.05C8.5998 48.3625 3.30174 61.4758 1.30626 75.275C0.634008 79.4814 0.364039 83.7423 0.500007 88C0.356875 92.2633 0.620567 96.5305 1.28751 100.744C3.68461 116.933 10.5569 132.132 21.1295 144.625C31.7021 157.118 45.5545 166.409 61.125 171.45C67.1363 173.355 73.327 174.638 79.6 175.281C85.1836 175.575 90.7789 175.575 96.3625 175.281C107.357 174.206 118.052 171.079 127.894 166.062C129.394 165.294 129.688 165.087 129.481 164.919C129.275 164.75 122.931 156.212 115.231 145.812L101.238 126.912L83.7375 100.962C74.0875 86.7 66.15 75.0375 66.0813 75.0375C66.0125 75.0375 65.9438 86.5437 65.9125 100.625C66.3587 109.374 66.2335 118.142 65.5375 126.875C65.237 127.557 64.7028 128.109 64.0313 128.431C63.4813 128.706 63 128.756 60.4188 128.756H57.4625L56.675 128.262C56.1871 127.956 55.79 127.524 55.525 127.012L55.1688 126.244L55.2 91.95L55.2563 57.6375L55.7813 56.9687C56.1354 56.5522 56.5582 56.1992 57.0313 55.925C57.7313 55.5875 58.0063 55.55 60.9625 55.55C64.4563 55.55 65.0375 55.6875 65.9625 56.6812C66.2188 56.9562 75.7125 71.25 87.0688 88.475C98.425 105.7 113.944 129.219 121.594 140.762L135.438 161.75L136.138 161.287C142.809 156.851 148.857 151.542 154.119 145.5C165.143 132.883 172.294 117.354 174.713 100.775C175.381 96.5515 175.645 92.2737 175.5 88C175.642 83.7429 175.378 79.482 174.713 75.275V75.275ZM119.956 86.8687L119.906 117.625L114.481 109.312L109.044 101V78.625C109.044 64.175 109.113 56.05 109.213 55.6562C109.334 55.201 109.547 54.7753 109.839 54.4047C110.13 54.0341 110.493 53.7263 110.906 53.5C111.606 53.1375 111.863 53.1062 114.55 53.1062C117.05 53.1062 117.525 53.1375 118.088 53.45C118.497 53.6535 118.86 53.937 119.158 54.2838C119.455 54.6305 119.68 55.0335 119.819 55.4687C119.956 55.9312 119.988 65.4375 119.956 86.8687V86.8687Z" fill="black"/>
</svg>
