<svg width="156" height="176" viewBox="0 0 156 176" fill="none" xmlns="http://www.w3.org/2000/svg">
<path d="M78 175.5C75.6392 175.501 73.3197 174.88 71.275 173.7L49.875 161.031C46.6813 159.244 48.2375 158.613 49.2938 158.244C52.6905 157.194 55.9428 155.725 58.975 153.869C59.2288 153.751 59.5084 153.701 59.7873 153.721C60.0662 153.742 60.3352 153.834 60.5688 153.988L77.0125 163.756C77.3187 163.918 77.6599 164.003 78.0063 164.003C78.3527 164.003 78.6938 163.918 79 163.756L143.125 126.744C143.425 126.564 143.673 126.309 143.845 126.005C144.017 125.7 144.107 125.356 144.106 125.006V50.9688C144.106 50.6134 144.015 50.264 143.841 49.9542C143.667 49.6444 143.416 49.3847 143.113 49.2L78.9875 12.2188C78.6851 12.0485 78.3439 11.959 77.9969 11.959C77.6498 11.959 77.3086 12.0485 77.0063 12.2188L12.9188 49.2125C12.6131 49.3933 12.3592 49.65 12.1819 49.9577C12.0045 50.2653 11.9095 50.6136 11.9063 50.9688V124.975C11.9071 125.324 12.0008 125.667 12.1776 125.967C12.3544 126.268 12.608 126.517 12.9125 126.688L30.5 136.838C40.0313 141.6 45.8688 135.988 45.8688 130.35V57.2813C45.8688 56.784 46.0663 56.3071 46.4179 55.9554C46.7696 55.6038 47.2465 55.4063 47.7438 55.4063H55.8688C56.366 55.4063 56.843 55.6038 57.1946 55.9554C57.5462 56.3071 57.7438 56.784 57.7438 57.2813V130.356C57.7438 143.075 50.8188 150.356 38.7563 150.356C33.5524 150.447 28.4301 149.055 23.9875 146.344L7.13126 136.675C5.08494 135.483 3.38699 133.776 2.20694 131.723C1.02688 129.67 0.405993 127.343 0.406264 124.975V50.9688C0.400182 48.5971 1.01844 46.2656 2.19891 44.2085C3.37938 42.1515 5.08048 40.4413 7.13126 39.25L71.2625 2.22501C73.3283 1.09481 75.6452 0.502441 78 0.502441C80.3548 0.502441 82.6717 1.09481 84.7375 2.22501L148.863 39.25C150.909 40.4393 152.607 42.1445 153.788 44.1953C154.969 46.2461 155.592 48.5709 155.594 50.9375V124.975C155.59 127.343 154.967 129.669 153.786 131.721C152.605 133.774 150.908 135.482 148.863 136.675L84.7375 173.7C82.689 174.882 80.365 175.503 78 175.5V175.5Z" fill="#83CD29"/>
<path d="M65.8375 100.206C65.8375 99.709 66.035 99.2321 66.3867 98.8804C66.7383 98.5288 67.2152 98.3312 67.7125 98.3312H76.0062C76.4494 98.3327 76.8777 98.491 77.2152 98.7782C77.5527 99.0654 77.7776 99.4628 77.85 99.9C79.1 108.344 82.85 112.6 99.8062 112.6C113.312 112.6 119.069 109.544 119.069 102.375C119.069 98.2437 117.437 95.175 96.4437 93.1187C78.8937 91.3812 68.0437 87.4937 68.0437 73.4688C68.0437 60.5313 78.95 52.8125 97.2312 52.8125C117.775 52.8125 127.944 59.9437 129.231 75.2437C129.251 75.4992 129.218 75.7559 129.135 75.9982C129.051 76.2404 128.919 76.463 128.746 76.6521C128.573 76.8413 128.364 76.9931 128.13 77.098C127.896 77.203 127.644 77.259 127.387 77.2625H119.037C118.619 77.2566 118.214 77.1107 117.887 76.8478C117.561 76.585 117.332 76.2205 117.237 75.8125C115.244 66.9313 110.362 64.0938 97.2375 64.0938C82.4875 64.0938 80.775 69.2312 80.775 73.0812C80.775 77.7437 82.8 79.1062 102.712 81.7375C122.419 84.3437 131.781 88.0313 131.781 101.881C131.781 115.856 120.131 123.856 99.8125 123.856C71.7187 123.894 65.8375 111.012 65.8375 100.206V100.206Z" fill="#83CD29"/>
</svg>
