<svg width="170" height="176" viewBox="0 0 170 176" fill="none" xmlns="http://www.w3.org/2000/svg">
<path d="M169.419 105.331C168.891 103.795 167.94 102.44 166.675 101.421C165.409 100.403 163.882 99.7627 162.269 99.575C160.363 99.3458 158.431 99.4537 156.562 99.8938C153.672 100.532 150.732 100.919 147.775 101.05C155.683 87.7088 161.722 73.3457 165.725 58.3625C171.681 35.3063 168.5 24.8063 164.781 20.05C159.843 13.8022 153.523 8.78497 146.317 5.39273C139.112 2.00049 131.218 0.325697 123.256 0.500009C115.952 0.431578 108.679 1.45109 101.675 3.52501C97.5035 2.80982 93.2821 2.42529 89.05 2.37501C81.3576 2.08295 73.7382 3.96072 67.0625 7.79376C61.9997 6.08199 56.8082 4.77784 51.5375 3.89376C45.3933 2.41978 39.0188 2.17114 32.7784 3.16205C26.5381 4.15296 20.5542 6.36399 15.1688 9.66876C4.33125 17.3188 -0.693747 30.6188 0.237503 49.2C1.90488 63.0619 4.84649 76.7406 9.025 90.0625C11.4315 98.3838 14.599 106.466 18.4875 114.206C21.3592 121.267 26.8184 126.966 33.75 130.138C36.2908 130.975 39.0092 131.117 41.6236 130.55C44.238 129.983 46.6531 128.727 48.6187 126.913C49.5109 127.969 50.5658 128.876 51.7437 129.6C53.5695 130.733 55.5598 131.576 57.6438 132.1C64.4652 134 71.7266 133.56 78.2687 130.85C78.3062 131.919 78.3375 132.944 78.3562 133.831C78.3937 135.263 78.4375 136.669 78.4875 137.988C78.4133 144.959 79.3415 151.905 81.2437 158.613C81.3437 158.881 81.475 159.281 81.6125 159.713C82.7103 163.818 84.8429 167.573 87.8062 170.619C91.3592 173.881 96.0475 175.624 100.869 175.475C102.922 175.462 104.969 175.234 106.975 174.794C110.778 174.316 114.446 173.082 117.764 171.164C121.082 169.246 123.982 166.682 126.294 163.625C131.362 156.406 133.831 145.538 134.275 128.406L134.437 127.019L134.544 126.113L135.737 126.219H136.044C142.803 126.505 149.544 125.337 155.812 122.794C159.756 120.963 172.4 114.288 169.419 105.294" fill="black"/>
<path d="M158.056 107.081C138.287 111.156 136.931 104.469 136.931 104.469C157.8 73.5 166.525 34.1875 158.994 24.5687C138.456 -1.68125 102.9 10.7375 102.306 11.0562L102.112 11.0937C97.7696 10.2222 93.3543 9.76178 88.925 9.71875C81.4555 9.34397 74.0845 11.5508 68.05 15.9687C68.05 15.9687 4.625 -10.1625 7.575 48.8312C8.2 61.3812 25.5625 143.794 46.2687 118.9C53.8375 109.8 61.15 102.1 61.15 102.1C64.8328 104.586 69.2639 105.717 73.6875 105.3L74.0437 105C73.9392 106.183 73.9875 107.374 74.1875 108.544C68.85 114.506 70.4375 115.55 59.7562 117.744C48.9687 119.969 55.3062 123.925 59.4437 124.962C63.8397 126.385 68.5726 126.381 72.9668 124.954C77.361 123.526 81.1918 120.747 83.9125 117.012L83.6 118.262C85.6875 119.937 87.1562 129.15 86.9125 137.506C86.2308 143.721 86.654 150.008 88.1625 156.075C89.8125 160.556 91.45 170.631 105.469 167.631C110.454 167.139 115.09 164.853 118.516 161.198C121.942 157.543 123.924 152.769 124.094 147.762C124.719 140.05 126.05 141.187 126.131 134.294L127.219 131.031C128.469 120.575 127.419 117.2 134.631 118.769L136.387 118.925C141.968 119.159 147.535 118.223 152.731 116.175C161.519 112.1 166.725 105.287 158.062 107.081" fill="#336791"/>
<path d="M71.7625 54.4437C70.3287 54.1421 68.8344 54.3638 67.55 55.0688C67.3826 55.1892 67.2411 55.342 67.1338 55.518C67.0264 55.6941 66.9554 55.8898 66.925 56.0938C66.9251 56.8145 67.1847 57.5112 67.6562 58.0563C68.4948 59.2079 69.7471 59.9898 71.15 60.2375C71.3364 60.2633 71.5243 60.2758 71.7125 60.275C72.641 60.2871 73.5509 60.0136 74.3188 59.4916C75.0868 58.9695 75.6759 58.2241 76.0062 57.3563C76.225 55.8063 73.9687 54.7688 71.7812 54.4625L71.7625 54.4437ZM130.794 54.5125C130.625 53.2938 128.456 52.95 126.419 53.2625C124.381 53.575 122.375 54.475 122.544 55.6938C122.862 56.4583 123.4 57.111 124.09 57.5685C124.78 58.026 125.591 58.2676 126.419 58.2625C126.592 58.2622 126.766 58.2497 126.937 58.225C128.021 58.0346 129.012 57.492 129.756 56.6813C130.378 56.1348 130.758 55.3638 130.812 54.5375" fill="white"/>
<path d="M164.631 106.619C163.875 104.338 161.45 103.606 157.419 104.438C145.45 106.938 141.169 105.194 139.756 104.163C149.234 89.6132 156.349 73.6553 160.838 56.8813C162.654 50.2462 163.703 43.4244 163.963 36.55C164.444 31.7415 163.326 26.9083 160.781 22.8C156.277 17.1309 150.517 12.5853 143.957 9.52135C137.396 6.45741 130.213 4.95885 122.975 5.14376C115.54 5.02741 108.14 6.19235 101.1 8.58751C97.0736 7.594 92.9468 7.06348 88.8 7.00626C81.3394 6.67844 73.9651 8.71007 67.725 12.8125C62.1704 10.7817 56.4367 9.27919 50.6 8.32501C39.4426 5.62496 27.6706 7.43275 17.8375 13.3563C8.46251 20.0063 4.08751 31.8938 4.95626 48.6875C6.59798 62.147 9.47042 75.4276 13.5375 88.3625C20.225 110.269 27.4938 122.675 35.1438 125.238C36.1327 125.571 37.169 125.742 38.2125 125.744C40.1545 125.623 42.0435 125.062 43.7362 124.103C45.4288 123.143 46.8806 121.811 47.9813 120.206C52.3229 114.998 56.8125 109.919 61.45 104.969C64.4313 106.582 67.7491 107.475 71.1375 107.575V107.838C70.5542 108.529 69.9854 109.233 69.4313 109.95C67.0875 112.919 66.6063 113.538 59.0688 115.094C56.925 115.538 51.2313 116.713 51.15 120.719C51.0625 125.094 57.8813 126.913 58.65 127.106C61.2008 127.762 63.8225 128.102 66.4563 128.119C72.2165 128.225 77.8018 126.138 82.0813 122.281C81.4422 134.176 82.2417 146.104 84.4625 157.806C85.4886 161.553 87.7097 164.862 90.7882 167.231C93.8667 169.6 97.6344 170.899 101.519 170.931C103.446 170.925 105.367 170.716 107.25 170.306C112.392 169.862 117.205 167.595 120.822 163.914C124.439 160.233 126.621 155.38 126.975 150.231C128.081 143.819 129.981 128.513 130.875 120.3C133.134 120.921 135.471 121.209 137.813 121.156C143.206 121.195 148.555 120.176 153.556 118.156C158.006 116.088 166.056 111.025 164.575 106.619H164.631ZM135.319 51.125C135.239 53.4453 134.996 55.7572 134.594 58.0438C134.129 60.7307 133.837 63.4445 133.719 66.1688C133.698 69.2426 133.907 72.3136 134.344 75.3563C135.694 81.5838 135.196 88.07 132.913 94.0188C132.427 93.1584 131.995 92.2693 131.619 91.3563C131.256 90.475 130.463 89.0563 129.375 87.1C125.125 79.475 115.163 61.6125 120.263 54.325C121.781 52.1563 125.638 49.95 135.313 51.125H135.319ZM123.588 10.0688C129.985 9.93797 136.326 11.2935 142.11 14.0286C147.895 16.7638 152.966 20.8039 156.925 25.8313C163.019 33.6125 156.3 69.0313 136.894 99.5813L136.306 98.8375L136.063 98.5313C139.918 91.2459 141.04 82.8216 139.225 74.7813C138.807 71.984 138.598 69.1595 138.6 66.3313C138.713 63.804 138.987 61.2864 139.419 58.7938C139.981 55.7162 140.239 52.5906 140.188 49.4625C140.289 49.0329 140.317 48.5889 140.269 48.15C138.198 39.7809 134.093 32.0523 128.319 25.65C123.13 19.5359 116.641 14.6587 109.325 11.375C114.01 10.3981 118.79 9.94945 123.575 10.0375L123.588 10.0688ZM44.2438 117.088C40.325 121.8 37.6125 120.9 36.7438 120.6C30.9438 118.663 24.2063 106.4 18.275 86.95C14.3368 74.3953 11.5338 61.5123 9.90001 48.4563C9.15001 33.4563 12.7875 22.9938 20.7125 17.3688C33.6063 8.22501 54.8125 13.7 63.3313 16.475C63.2063 16.5938 63.0813 16.7063 62.9625 16.8313C48.9813 30.95 49.3125 55.075 49.35 56.55C49.35 57.1188 49.3938 57.925 49.4625 59.05C49.975 65.7707 49.8054 72.526 48.9563 79.2125C48.3752 83.0411 48.6737 86.9517 49.8292 90.6477C50.9847 94.3436 52.9667 97.7279 55.625 100.544C56.1792 101.119 56.7583 101.665 57.3625 102.181C52.8466 107.024 48.4699 111.995 44.2375 117.088H44.2438ZM59.1813 97.15C57.0258 94.8712 55.4186 92.1308 54.4818 89.1373C53.5449 86.1438 53.3032 82.976 53.775 79.875C54.6709 72.8678 54.8531 65.7878 54.3188 58.7438C54.2856 58.2378 54.2564 57.7315 54.2313 57.225C59.4668 53.2792 65.964 51.3831 72.5 51.8938C74.0038 52.2346 75.3642 53.0351 76.3923 54.1842C77.4205 55.3333 78.0654 56.774 78.2375 58.3063C82.275 76.9875 78.7688 84.7688 75.9563 91.025C75.375 92.3125 74.825 93.525 74.3625 94.775L74 95.75C73.1018 98.0147 72.3338 100.329 71.7 102.681C69.3503 102.648 67.0316 102.139 64.8835 101.187C62.7353 100.234 60.8021 98.8567 59.2 97.1375L59.1813 97.15ZM59.8875 122.338C58.7279 122.052 57.6234 121.577 56.6188 120.931C57.7359 120.454 58.9039 120.106 60.1 119.894C68.9625 118.069 70.3313 116.769 73.325 112.988C74.0125 112.119 74.7875 111.113 75.8625 109.931C77.4625 108.138 78.2 108.444 79.525 108.994C80.1535 109.335 80.7045 109.803 81.1434 110.368C81.5823 110.932 81.8994 111.582 82.075 112.275C82.2497 112.778 82.3122 113.314 82.2582 113.844C82.2042 114.374 82.0351 114.886 81.7625 115.344C79.3397 118.689 75.911 121.173 71.9768 122.432C68.0427 123.692 63.809 123.661 59.8938 122.344L59.8875 122.338ZM106.288 165.5C104.533 166.11 102.671 166.343 100.82 166.184C98.9702 166.025 97.1743 165.478 95.55 164.578C93.9257 163.678 92.5094 162.445 91.3937 160.961C90.278 159.476 89.4879 157.773 89.075 155.963C86.8741 141.798 86.2453 127.434 87.2 113.131C87.2063 112.869 87.1705 112.607 87.0938 112.356C87.0282 111.871 86.9279 111.39 86.7938 110.919C86.4235 109.513 85.7491 108.205 84.8182 107.089C83.8873 105.972 82.7225 105.073 81.4063 104.456C79.8718 103.695 78.1253 103.475 76.45 103.831C77.0422 101.664 77.7558 99.5312 78.5875 97.4438L78.95 96.4625C79.3625 95.3563 79.875 94.2125 80.4188 93C83.3625 86.4563 87.4 77.4875 83.0188 57.2375C82.7415 55.515 82.1143 53.8675 81.1759 52.3967C80.2375 50.9259 79.0078 49.6628 77.5625 48.6855C76.1173 47.7081 74.4872 47.0372 72.7727 46.714C71.0582 46.3908 69.2957 46.4222 67.5938 46.8063C63.4772 47.3403 59.4857 48.5904 55.8 50.5C55.3125 50.75 54.8625 50.9875 54.45 51.2188C54.9227 39.8623 59.1373 28.9808 66.4375 20.2688C69.3697 17.3993 72.8691 15.1742 76.7115 13.7363C80.5539 12.2984 84.6544 11.6793 88.75 11.9188C95.6691 11.9788 102.491 13.5564 108.734 16.5402C114.977 19.5239 120.489 23.8413 124.881 29.1875C129.168 34.1933 132.518 39.9309 134.769 46.125C125.625 45.1938 119.406 47 116.256 51.5063C109.381 61.3063 120.006 80.3313 125.106 89.475C126.044 91.15 126.85 92.6 127.1 93.225C128.447 96.3692 130.261 99.2918 132.481 101.894C132.963 102.519 133.431 103.075 133.781 103.588C131.013 104.388 126.038 106.231 126.494 115.463C126.131 120.088 123.531 141.744 122.206 149.4C120.463 159.506 116.744 163.275 106.281 165.519L106.288 165.5ZM151.55 113.7C147.702 115.226 143.619 116.072 139.481 116.2C136.728 116.605 133.917 116.244 131.356 115.156C131.075 109.413 133.231 108.813 135.481 108.175C135.838 108.075 136.181 107.975 136.519 107.863C136.739 108.041 136.969 108.207 137.206 108.363C141.2 111 148.331 111.281 158.394 109.206H158.506C156.426 111.056 154.074 112.574 151.531 113.706L151.55 113.7Z" fill="white"/>
</svg>
