<svg width="176" height="156" viewBox="0 0 176 156" fill="none" xmlns="http://www.w3.org/2000/svg">
<path d="M88 93.4625C96.6294 93.4625 103.625 86.467 103.625 77.8375C103.625 69.2081 96.6294 62.2125 88 62.2125C79.3706 62.2125 72.375 69.2081 72.375 77.8375C72.375 86.467 79.3706 93.4625 88 93.4625Z" fill="#00D8FF"/>
<path d="M88 113.662C69.2196 114.117 50.4862 111.585 32.5 106.162C24.1914 103.529 16.4421 99.3796 9.64375 93.925C7.04956 92.0616 4.8892 89.659 3.31089 86.8821C1.73258 84.1052 0.773685 81.0198 0.5 77.8375C0.5 67.5062 11.85 57.3812 30.8625 50.7562C49.3296 44.8859 68.6245 42.0408 88 42.3312C107.117 42.0641 126.153 44.8578 144.387 50.6062C152.389 53.1572 159.876 57.1057 166.5 62.2687C169.05 64.0452 171.178 66.3607 172.733 69.0512C174.288 71.7417 175.233 74.7413 175.5 77.8375C175.5 88.575 162.813 99.4562 142.375 106.219C124.737 111.465 106.399 113.975 88 113.662V113.662ZM88 49.8062C69.4632 49.5584 51.0052 52.2631 33.3187 57.8187C15.8187 63.925 7.975 72.275 7.975 77.8187C7.975 83.6187 16.4063 92.7375 34.9187 99.0687C52.1255 104.23 70.0413 106.633 88 106.187C105.603 106.502 123.15 104.12 140.031 99.125C159.25 92.7562 168 83.625 168 77.8375C167.685 75.8514 166.961 73.9523 165.874 72.2601C164.788 70.5679 163.362 69.1195 161.688 68.0062C155.761 63.4259 149.073 59.9265 141.931 57.6687C124.488 52.1922 106.281 49.5379 88 49.8062V49.8062Z" fill="#00D8FF"/>
<path d="M52.5 155.769C49.5844 155.836 46.7032 155.128 44.15 153.719C35.2 148.556 32.1 133.669 35.8563 113.888C39.9978 94.9569 47.1738 76.8206 57.1063 60.1813C66.4233 43.4882 78.3511 28.3932 92.4375 15.4688C98.6447 9.81067 105.805 5.29716 113.587 2.13751C116.402 0.818385 119.473 0.134583 122.581 0.134583C125.69 0.134583 128.76 0.818385 131.575 2.13751C140.881 7.50002 143.962 23.925 139.619 45.0063C135.349 62.9098 128.36 80.0528 118.894 95.8375C109.905 112.334 98.3523 127.297 84.6687 140.169C78.2362 146.049 70.7708 150.687 62.65 153.85C59.3989 155.057 55.9672 155.705 52.5 155.769V155.769ZM63.5813 63.8938C54.1069 79.8271 47.2291 97.1669 43.2063 115.263C39.75 133.481 43.0688 144.438 47.8938 147.225C52.8938 150.119 65.0312 147.375 79.7687 134.5C92.8314 122.168 103.858 107.845 112.437 92.0625C121.506 76.972 128.211 60.5822 132.319 43.4625C136.406 23.6188 132.875 11.4688 127.862 8.58127C125.984 7.86143 123.976 7.5392 121.967 7.63495C119.957 7.73069 117.989 8.24233 116.187 9.13751C109.26 11.9959 102.892 16.054 97.375 21.125C83.9167 33.5049 72.5231 47.9559 63.625 63.9313L63.5813 63.8938Z" fill="#00D8FF"/>
<path d="M123.481 155.85C115.013 155.85 104.256 150.725 93.0563 141.094C78.7231 128.052 66.5936 112.777 57.1375 95.8625C47.3296 79.4522 40.2104 61.5784 36.05 42.9187C34.2457 34.7093 33.9113 26.2449 35.0625 17.9187C35.3286 14.83 36.2692 11.8373 37.8177 9.15163C39.3663 6.46595 41.4852 4.15269 44.025 2.37499C53.3188 -3.00626 69.0875 2.52499 85.1813 16.8125C98.56 29.4511 109.921 44.0669 118.869 60.15C128.671 76.1771 135.864 93.6596 140.181 111.944C142.063 120.454 142.354 129.24 141.037 137.856C140.724 141.034 139.728 144.106 138.116 146.862C136.504 149.619 134.316 151.994 131.7 153.825C129.189 155.217 126.352 155.916 123.481 155.85V155.85ZM63.6063 92.1C72.6777 108.265 84.2643 122.883 97.9313 135.406C111.988 147.5 123.138 150.1 127.931 147.281C132.931 144.375 136.619 132.512 132.819 113.319C128.655 95.8621 121.756 79.1744 112.375 63.875C103.836 48.482 92.9921 34.4866 80.2188 22.375C65.0688 8.92499 52.7813 5.91874 47.775 8.81874C46.2147 10.0867 44.9342 11.6645 44.0144 13.4524C43.0946 15.2403 42.5556 17.1995 42.4313 19.2062C41.4375 26.6318 41.7612 34.1744 43.3875 41.4875C47.3894 59.3321 54.2171 76.4226 63.6125 92.1125L63.6063 92.1Z" fill="#00D8FF"/>
</svg>
