<svg width="438" height="438" viewBox="0 0 438 438" fill="none" xmlns="http://www.w3.org/2000/svg">
<path d="M207.156 0.25C214.141 0.109375 221.125 0.25 228.125 0.25C229.313 0.25 230.641 0.0312491 231.656 0.828124C234.094 0.953124 236.547 0.828126 239 0.953126C240.891 2.07813 243.203 1.28125 245.25 1.57813C246.813 2.76563 248.922 1.57813 250.469 2.70313C251.938 2.85938 253.594 2.45313 254.891 3.32813L257.813 3.48438C259.031 4.21875 260.547 3.875 261.781 4.53125C262.856 4.52759 263.92 4.74568 264.906 5.17188C265.972 5.19405 267.028 5.3893 268.031 5.75C268.901 5.86914 269.752 6.10022 270.563 6.4375L272.266 6.67188C273.328 7.09375 274.469 7.28125 275.563 7.64063C276.43 7.75736 277.279 7.97769 278.094 8.29688L279.188 8.57812C280.266 8.96875 281.406 9.17187 282.484 9.5625L283.594 9.78125C284.438 10.2031 285.328 10.4375 286.203 10.7812L288.094 11.3906L289.984 12C290.63 12.2188 291.271 12.4635 291.906 12.7344L293.078 12.8906L294.969 14.0469L296.156 14.2188C296.793 14.4917 297.452 14.7112 298.125 14.875L300.109 15.875H301.297L303.188 16.9687C304.285 17.198 305.34 17.5987 306.313 18.1562L307.5 18.8437C309.018 19.3679 310.505 19.9782 311.953 20.6719L314.469 21.9531L316.438 22.8906L319.563 24.4531L321.531 25.3906C323.719 26.3281 325.516 27.9531 327.781 28.8125C328.656 29.3281 329.453 29.9687 330.359 30.375C331.656 30.9844 332.75 31.9375 334.063 32.5469C342.841 38.0326 351.241 44.1036 359.203 50.7187C361.328 51.875 362.531 54.125 364.594 55.4062C365.467 55.976 366.26 56.659 366.953 57.4375C371.813 62.4219 376.859 67.2344 381.672 72.2656C383.047 74.7812 385.703 76.2344 387.078 78.7656C389.625 81.1094 391.203 84.2656 393.625 86.7344C396.656 91.4219 400.203 95.6406 403.094 100.375C404 102.375 405.594 103.969 406.516 105.969C406.984 106.859 407.609 107.656 408.078 108.531L408.625 109.844C409.675 111.424 410.624 113.067 411.469 114.766C411.875 115.609 412.281 116.453 412.734 117.281C413.188 118.109 413.359 118.594 413.672 119.25C414.203 120.266 414.703 121.297 415.234 122.375L416.156 124.359L417.109 126.125C417.406 126.797 417.734 127.437 418.063 128.109C418.764 129.54 419.379 131.012 419.906 132.516C420.535 133.459 420.961 134.524 421.156 135.641L422.25 137.531L422.344 138.734L423.422 140.625C423.58 141.298 423.794 141.957 424.063 142.594L424.25 143.766L425.297 145.656C425.462 146.327 425.676 146.985 425.938 147.625L426.156 148.75C426.531 149.609 426.828 150.516 427.219 151.375C427.219 151.656 427.391 152.219 427.453 152.5C427.844 153.578 428.063 154.703 428.438 155.781L428.719 156.906C429.094 157.984 429.297 159.109 429.688 160.187C429.688 160.469 429.891 161.031 429.969 161.297C430.344 162.391 430.547 163.516 430.969 164.609C430.969 165.172 431.125 165.734 431.203 166.312C431.536 167.126 431.772 167.975 431.906 168.844C432.422 170.109 432.219 171.562 432.859 172.797C432.859 173.359 433.016 173.922 433.094 174.484C433.984 175.891 433.219 177.687 434.141 179.078C434.141 179.844 434.25 180.641 434.328 181.391C435.422 182.953 434.328 185.062 435.422 186.625C435.594 188.094 435.125 189.75 436.063 191.031C436.063 192.422 436.063 193.828 436.188 195.219C437.391 197.516 436.438 200.281 436.813 202.766C437.609 203.797 437.328 205.125 437.391 206.328C437.313 215.625 437.391 224.906 437.313 234.187C436.125 236.281 437.031 238.875 436.688 241.109C435.609 242.781 436.313 244.875 436.063 246.75C434.859 248.312 436.063 250.453 434.938 252C435.075 253.488 434.877 254.989 434.359 256.391C434.381 257.469 434.157 258.537 433.703 259.516C433.703 260.281 433.578 261.078 433.516 261.828C433.053 262.804 432.823 263.873 432.844 264.953C432.234 266.187 432.422 267.625 431.906 268.906C431.748 269.757 431.54 270.597 431.281 271.422C431.126 272.273 430.918 273.113 430.656 273.938C430.517 274.796 430.292 275.639 429.984 276.453L429.688 277.547C429.281 278.609 429.109 279.734 428.781 280.812C428.563 281.453 428.313 282.078 428.063 282.703L427.813 283.828C427.422 284.906 427.203 286.047 426.828 287.125L426.563 288.234C426.308 288.876 426.094 289.534 425.922 290.203L424.969 292.078C424.776 292.741 424.563 293.398 424.328 294.047L424.063 295.172C423.799 295.811 423.585 296.469 423.422 297.141L422.359 299.031L422.266 300.25C421.891 300.859 421.531 301.5 421.172 302.125C420.977 303.242 420.551 304.307 419.922 305.25C419.375 306.531 418.922 307.844 418.359 309.125L417.719 310.344L416.766 312.156L415.813 314.156L415.188 315.375C414.753 316.212 414.331 317.056 413.922 317.906L413.297 319.141C412.77 320.179 412.249 321.221 411.734 322.266C410.822 324.219 409.778 326.109 408.609 327.922C408.031 329 407.234 329.953 406.734 331.047C406.052 332.056 405.421 333.099 404.844 334.172C399.251 343.215 392.984 351.823 386.094 359.922C384.766 362.281 382.234 363.625 380.969 366.031C376.578 370.719 371.953 375.031 367.5 379.594C365.938 381.406 363.594 382.375 362.141 384.281C353.84 391.363 345.065 397.868 335.875 403.75C334.078 404.594 332.563 405.937 330.859 406.875C328.609 407.719 326.844 409.375 324.609 410.281C322.375 411.187 320.531 412.937 318.203 413.75L316.438 414.703L314.438 415.625C312.516 416.875 310.25 417.375 308.188 418.437C307.302 418.851 306.442 419.316 305.609 419.828H304.391L302.484 421.016H301.25L299.359 422.203H298.141L296.25 423.281C295.577 423.44 294.919 423.654 294.281 423.922L293.094 424.109L291.219 425.172C289.888 425.445 288.593 425.869 287.359 426.437L286.234 426.687C285.172 427.078 284.047 427.266 282.969 427.594C282.329 427.808 281.698 428.047 281.078 428.312L279.953 428.562C278.859 428.937 277.719 429.156 276.641 429.562L274.938 429.797C274.121 430.133 273.265 430.364 272.391 430.484C271.297 430.828 270.156 431.031 269.094 431.453L267.391 431.687C266.156 432.359 264.656 432.016 263.438 432.719L261.109 432.922C259.891 433.641 258.359 433.25 257.141 433.984C255.851 433.864 254.552 434.085 253.375 434.625L249.813 434.766C248.25 435.922 246.109 434.766 244.578 435.891C242.766 435.891 240.938 435.891 239.141 436.016C236.016 437.578 232.031 435.547 228.875 437.141C222.323 437.245 215.776 437.245 209.234 437.141L208.141 436.625C205.016 436.172 201.625 437.297 198.766 435.984C196.953 435.984 195.125 435.984 193.328 435.875C191.844 434.859 189.969 435.453 188.313 435.234C186.938 434.219 185.078 435.094 183.625 434.125L180.703 433.969C179.523 433.436 178.227 433.216 176.938 433.328C175.719 432.609 174.203 432.953 172.953 432.281L171.266 432.047C170.458 431.698 169.606 431.462 168.734 431.344C167.469 430.828 166.031 430.984 164.781 430.422L163.703 430.141C162.876 429.968 162.031 429.9 161.188 429.937C160.094 429.578 158.969 429.391 157.906 429L156.797 428.719C155.719 428.328 154.594 428.109 153.516 427.734L152.391 427.469C151.75 427.219 151.109 426.984 150.484 426.781C149.859 426.578 148.734 426.219 147.875 425.906C147.016 425.594 146.594 425.453 145.969 425.203L144.797 425.031C144.172 424.656 143.547 424.312 142.922 423.969C142.245 423.799 141.582 423.58 140.938 423.312L139.781 423.141C139.156 422.766 138.526 422.406 137.891 422.062C137.004 421.86 136.14 421.567 135.313 421.187C134.372 420.547 133.307 420.11 132.188 419.906L130.906 419.234C128.875 418.203 126.625 417.672 124.656 416.437L121.422 414.875C120.597 414.421 119.753 414.004 118.891 413.625L117.125 412.687C115.234 412.047 113.875 410.5 111.984 409.859C111.384 409.539 110.775 409.236 110.156 408.953C109.155 408.258 108.112 407.626 107.031 407.062C105.953 406.469 105.016 405.656 103.906 405.172C94.8613 399.582 86.2533 393.314 78.1563 386.422C76.0625 385.25 74.8125 383.031 72.6719 381.922C68.1719 377.641 63.8594 373.125 59.4219 368.766C57.7532 367.292 56.2496 365.642 54.9375 363.844C46.8938 354.892 39.6671 345.239 33.3438 335C32.8594 334.109 32.2188 333.312 31.7813 332.422C31.3438 331.531 30.4844 330.359 29.8906 329.297C29.1875 327.734 27.9375 326.5 27.375 324.859L26.4375 323.094C25.6991 321.569 24.8477 320.101 23.8906 318.703C23.6045 318.029 23.3023 317.362 22.9844 316.703C21.7187 314.781 21.25 312.5 20.1562 310.453L19.1875 308.5C18.2344 306.938 17.9688 305.078 16.9531 303.547C16.5751 302.719 16.282 301.855 16.0781 300.969C15.7366 300.337 15.3824 299.712 15.0156 299.094L14.8281 297.906C14.5688 297.266 14.3548 296.608 14.1875 295.937L13.1406 294.078L12.9531 292.891C12.705 292.255 12.4706 291.614 12.25 290.969C11.9829 290.077 11.654 289.205 11.2656 288.359C11.2656 288.078 11.1406 287.5 11.0781 287.203C10.6875 286.344 10.4063 285.437 10.0156 284.578C10.0156 284.297 9.84375 283.734 9.78125 283.453C9.39062 282.359 9.17187 281.234 8.79687 280.156L8.51563 279.062C8.19223 278.248 7.96669 277.399 7.84375 276.531C7.5 275.437 7.29688 274.312 6.90625 273.234L6.625 272.141C6 270.891 6.28125 269.422 5.625 268.188L5.39062 266.5C4.71875 265.266 5.03125 263.766 4.375 262.531C4.3906 261.452 4.16086 260.384 3.70312 259.406C3.81184 258.117 3.59141 256.821 3.0625 255.641C3.0625 254.656 2.96875 253.672 2.90625 252.703C1.76563 251.141 2.90625 249 1.79687 247.453C1.57812 245.781 2.17187 243.922 1.17187 242.437C0.828124 240.156 1.71875 237.609 0.546875 235.516C0.442708 224.568 0.442708 213.63 0.546875 202.703L1.0625 201.609C1.15625 199.578 1.0625 197.547 1.1875 195.516C2.46875 193.781 1.03125 191.406 2.3125 189.656C2.48437 188.187 2.03125 186.531 2.9375 185.25C2.9375 184.062 3.01562 182.875 3.07812 181.687C3.82812 180.484 3.46875 178.953 4.125 177.719C4.12134 176.644 4.33943 175.58 4.76562 174.594C4.75502 173.518 4.9734 172.453 5.40625 171.469L5.625 169.781C6.26563 168.547 6.0625 167.109 6.57812 165.828C6.71554 164.969 6.94068 164.126 7.25 163.312L7.53125 162.234C7.84834 161.418 8.07368 160.569 8.20313 159.703C8.54688 158.625 8.75 157.516 9.0625 156.422C9.28125 155.781 9.53125 155.156 9.79688 154.531L10 153.391C10.3906 152.531 10.6719 151.625 11.0625 150.766L11.25 149.609C11.6259 148.76 11.9494 147.889 12.2188 147L12.9219 145.078L13.0938 143.891L14.2344 142.016C14.2344 141.719 14.3594 141.125 14.4062 140.828C14.6708 140.186 14.8952 139.529 15.0781 138.859L16.0469 136.984C16.2639 136.105 16.562 135.247 16.9375 134.422C18.0469 132.656 18.4063 130.547 19.5156 128.766C20.625 126.984 20.7656 125.391 21.6719 123.812C22.2031 122.734 22.7656 121.656 23.2344 120.578L23.875 119.344C24.5675 117.8 25.4212 116.333 26.4219 114.969L27 113.688C27.869 111.948 28.8502 110.268 29.9375 108.656L30.4844 107.344C31.4063 105.781 32.5156 104.453 33.375 102.906C37.4353 96.3293 41.8697 89.9908 46.6563 83.9219C49.0781 81.2813 50.9063 78.1562 53.5625 75.7344C54.4063 74.8906 54.875 73.7656 55.7188 72.9219C61.5156 67.1719 67.25 61.375 73.0313 55.625C74.7313 54.4382 76.3024 53.0766 77.7188 51.5625C79.6094 50.5937 80.7344 48.7187 82.5781 47.6875C85.0625 45.5 87.8125 43.6406 90.3906 41.6094C94.1563 39.3437 97.4375 36.3437 101.328 34.2656C102.891 33.4219 104.234 32.25 105.797 31.4062C107.094 30.7969 108.203 29.8437 109.469 29.2031C111.531 28.4531 113.109 26.8594 115.156 26.0781L118.375 24.5156C119.203 24.0625 120.047 23.6562 120.922 23.2656L122.688 22.3281C123.531 21.9219 124.391 21.5156 125.219 21.0625L127.188 20.1094C128.62 19.4124 130.091 18.7968 131.594 18.2656C132.532 17.6269 133.599 17.2003 134.719 17.0156L136.688 15.875H137.906L139.813 14.6875H141.047L142.938 13.5L144.156 13.375C145.002 12.9812 145.874 12.647 146.766 12.375C147.406 12.1719 148.047 11.9375 148.688 11.6875L149.828 11.4687C150.678 11.0948 151.549 10.7713 152.438 10.5C153.078 10.2969 153.719 10.0625 154.359 9.8125L155.469 9.54688C156.547 9.15625 157.688 8.95313 158.766 8.5625L159.859 8.28125C160.671 7.96624 161.514 7.74094 162.375 7.60937C163.202 7.34254 164.048 7.13883 164.906 7C166 6.65625 167.141 6.45312 168.219 6.03125L169.906 5.79688C171.141 5.10938 172.656 5.46875 173.875 4.76563L176.203 4.57812C177.18 4.11991 178.25 3.89523 179.328 3.92187C180.734 3.04687 182.531 3.8125 183.922 2.89062C185.188 2.73437 186.594 3.04688 187.688 2.23438C189.359 2.01563 191.234 2.625 192.719 1.59375C194.797 1.29687 197.125 2.09375 198.969 0.96875C201.656 0.5625 204.641 1.59375 207.141 0.343751" fill="#75AADB"/>
<path d="M142 109.812V126.875C151.016 127.797 159.984 129.125 169 130.094V288.687C160.062 288.812 151.094 288.422 142.187 288.875C141.931 291.732 141.863 294.603 141.984 297.469C141.875 300.548 141.932 303.63 142.156 306.703C148.781 307.188 155.437 306.703 162.078 306.906H218.047C218.822 306.902 219.595 306.834 220.359 306.703C220.592 303.824 220.654 300.933 220.547 298.047C220.653 294.989 220.596 291.927 220.375 288.875C218.359 288.628 216.325 288.56 214.297 288.672H189.187V217.047H221.313C226.484 224.25 231.187 231.797 236.203 239.141L279.438 304.031C280.328 305.203 281 307.281 282.781 306.984H317.156V288.781H295.391C294.547 288.781 293.563 288.781 292.984 288.109C276.745 264.151 260.49 240.193 244.219 216.234C243.706 215.431 243.326 214.55 243.094 213.625C251.575 211.269 259.529 207.318 266.531 201.984C267.921 200.651 269.387 199.399 270.922 198.234C274.373 194.587 277.35 190.518 279.781 186.125C285.047 175.408 286.833 163.313 284.891 151.531C284.038 145.779 282.055 140.253 279.057 135.27C276.059 130.288 272.105 125.948 267.422 122.5C256.577 115.045 243.865 110.769 230.719 110.156C213.676 110.12 196.652 111.258 179.766 113.562C167.059 114.29 154.316 113.025 142 109.812V109.812ZM189.219 130.234C200.056 128.923 210.948 128.109 221.859 127.797C233.461 127.044 244.952 130.438 254.281 137.375C258.358 141.377 261.385 146.322 263.094 151.773C264.803 157.224 265.141 163.012 264.078 168.625C263.497 172.786 262.073 176.784 259.894 180.376C257.715 183.968 254.827 187.078 251.406 189.516C241.029 196.081 229.014 199.595 216.734 199.656C207.562 200.453 198.391 199.484 189.219 199.516C189.156 176.401 189.156 153.307 189.219 130.234V130.234Z" fill="white"/>
</svg>
