<svg id="about-me" xmlns="http://www.w3.org/2000/svg" width="206.324" height="55.305" viewBox="0 0 206.324 55.305">
  <path id="Path_16" data-name="Path 16" d="M2,0H204.324a2,2,0,0,1,2,2V53.305a2,2,0,0,1-2,2H2a2,2,0,0,1-2-2V2A2,2,0,0,1,2,0Z"/>
  <path id="Path_17" data-name="Path 17" d="M15.168,35.5a6.308,6.308,0,0,1,2.179-5.168,7.925,7.925,0,0,1,5.169-1.8,8.92,8.92,0,0,1,7.006,2.84v-3.8a3.879,3.879,0,0,0-1.5-3.226,5.911,5.911,0,0,0-3.845-1.2,8.413,8.413,0,0,0-6.472,2.948L16.172,23.82a11.258,11.258,0,0,1,8.458-3.5,9.363,9.363,0,0,1,5.9,1.752,6.35,6.35,0,0,1,2.286,5.383V41.977h-3.29V39.563a8.937,8.937,0,0,1-7.006,2.948,7.754,7.754,0,0,1-5.127-1.88A6.362,6.362,0,0,1,15.168,35.5m3.332,0a4.3,4.3,0,0,0,1.452,3.354,5.582,5.582,0,0,0,3.8,1.282,6.613,6.613,0,0,0,5.767-2.628V33.5a6.725,6.725,0,0,0-5.767-2.584,5.528,5.528,0,0,0-3.8,1.3A4.187,4.187,0,0,0,18.5,35.5m20.89,6.471V12.8h3.268V24.032a8.88,8.88,0,0,1,13.928-.662,11.931,11.931,0,0,1,2.6,8.052,11.947,11.947,0,0,1-2.6,8.1,8.972,8.972,0,0,1-13.928-.684v3.14H39.39m3.268-5.723a6.874,6.874,0,0,0,2.649,2.37,7.769,7.769,0,0,0,3.695.94A6.025,6.025,0,0,0,53.936,37.3a9.012,9.012,0,0,0,1.858-5.875,9.082,9.082,0,0,0-1.837-5.874A6,6,0,0,0,49,23.241a7.386,7.386,0,0,0-3.695,1,6.949,6.949,0,0,0-2.649,2.414v9.592m23.476,3.076A11.463,11.463,0,0,1,63.272,31.4a11.337,11.337,0,0,1,2.862-7.9,9.769,9.769,0,0,1,7.6-3.183A9.7,9.7,0,0,1,81.321,23.5a11.337,11.337,0,0,1,2.862,7.9,11.464,11.464,0,0,1-2.862,7.925,9.712,9.712,0,0,1-7.583,3.183,9.774,9.774,0,0,1-7.6-3.183m2.477-13.714a9.027,9.027,0,0,0-1.88,5.789,9.079,9.079,0,0,0,1.88,5.788,6.706,6.706,0,0,0,10.231,0,9.073,9.073,0,0,0,1.88-5.788,9.03,9.03,0,0,0-1.88-5.79,6.706,6.706,0,0,0-10.231,0M89.545,35.759V20.849h3.268V34.755a4.8,4.8,0,0,0,1.218,3.717,5.206,5.206,0,0,0,3.546,1.089,7.4,7.4,0,0,0,3.546-.918,7.651,7.651,0,0,0,2.67-2.264V20.849h3.29V41.974h-3.29V39a10.623,10.623,0,0,1-3.311,2.5,9.21,9.21,0,0,1-4.208,1q-6.729-.02-6.729-6.75m21.232-12.025V20.849h3.5v-5.79h3.332v5.79h4.294v2.884h-4.294V36.848a3.312,3.312,0,0,0,.534,1.966,1.828,1.828,0,0,0,1.56.747,2.877,2.877,0,0,0,2.242-.918l.962,2.5a5.572,5.572,0,0,1-3.888,1.367q-4.721,0-4.742-4.956V23.733h-3.5" fill="#fff" stroke="#fff" stroke-width="1"/>
  <path id="Path_18" data-name="Path 18" d="M126.477,41.719a2.477,2.477,0,0,1,0-3.418,2.322,2.322,0,0,1,1.708-.7,2.277,2.277,0,0,1,1.709.7,2.393,2.393,0,0,1-1.709,4.1,2.366,2.366,0,0,1-1.708-.684m10.061.256V20.85h3.268v3.055a8.384,8.384,0,0,1,2.777-2.414,7.809,7.809,0,0,1,4.1-1.175,5.856,5.856,0,0,1,3.7,1.11,5.218,5.218,0,0,1,1.943,2.842,8.3,8.3,0,0,1,2.927-2.756,7.884,7.884,0,0,1,4.165-1.2q5.9,0,5.9,6.387V41.976h-3.269V27.622q0-4.38-3.908-4.38a6.031,6.031,0,0,0-3.162.962,7.4,7.4,0,0,0-2.435,2.286V41.976h-3.269V27.622q0-4.38-3.909-4.38a5.781,5.781,0,0,0-3.1.983,8.137,8.137,0,0,0-2.457,2.307V41.976h-3.267m34.049-10.6a11.107,11.107,0,0,1,2.969-7.84,9.748,9.748,0,0,1,7.455-3.225,9.21,9.21,0,0,1,7.412,3.226,12.07,12.07,0,0,1,2.733,8.118v.832H174.09a8.1,8.1,0,0,0,2.242,5.213,7.12,7.12,0,0,0,5.319,2.093,8.823,8.823,0,0,0,6.579-2.713l1.56,2.136a11.554,11.554,0,0,1-8.4,3.29,10.436,10.436,0,0,1-7.8-3.1,11.043,11.043,0,0,1-3.011-8.033m3.46-1.345H187.91a7.563,7.563,0,0,0-1.837-4.828,6.943,6.943,0,0,0-10.083-.022,7.89,7.89,0,0,0-1.943,4.85" fill="#9bf1ff" stroke="#9bf1ff" stroke-width="1"/>
</svg>
